<svg viewBox="0 0 673 309" xmlns="http://www.w3.org/2000/svg">
    <g fill="currentColor">
        <path d="m77.718 122.93h22.99v99.08h-22.99v-10.376c-9.426 8.817-19.565 13.225-30.416 13.225-13.699-0-25.024-4.951-33.976-14.852-8.884-10.105-13.326-22.719-13.326-37.842 0-14.852 4.442-27.228 13.326-37.13 8.884-9.901 20.006-14.852 33.366-14.852 11.529 0 21.871 4.748 31.026 14.242v-11.495zm-54.321 49.235c-0 9.494 2.543 17.226 7.629 23.193 5.222 6.036 11.8 9.054 19.735 9.054 8.477-0 15.327-2.916 20.548-8.748 5.222-6.036 7.833-13.699 7.833-22.99s-2.611-16.955-7.833-22.99c-5.221-5.9-12.003-8.85-20.345-8.85-7.866-0-14.445 2.984-19.734 8.951-5.222 6.036-7.833 13.496-7.833 22.38z"/>
        <path d="m152.49 122.93v99.08h-22.888v-99.08h22.888zm-26.347-41.199c0-4.001 1.458-7.46 4.375-10.376 2.916-2.916 6.408-4.374 10.477-4.374 4.137 0 7.664 1.458 10.58 4.374 2.916 2.849 4.374 6.341 4.374 10.478s-1.458 7.663-4.374 10.579c-2.849 2.917-6.341 4.375-10.478 4.375s-7.663-1.458-10.579-4.375c-2.917-2.916-4.375-6.476-4.375-10.681z"/>
        <path d="m181.48 122.93h22.888v9.155c4.408-4.611 8.172-7.731 11.292-9.358 3.323-1.696 7.493-2.544 12.512-2.544 11.19 0 20.04 4.883 26.55 14.649 7.189-9.766 16.92-14.649 29.195-14.649 22.312 0 33.468 13.53 33.468 40.589v61.238h-22.99v-55.033c-0-9.494-1.153-16.208-3.459-20.142-2.373-4.001-6.273-6.001-11.698-6.001-6.307-0-10.902 2.373-13.784 7.12-2.882 4.748-4.323 12.377-4.323 22.889v51.167h-22.99v-54.728c-0-17.632-5.086-26.448-15.259-26.448-6.443-0-11.139 2.407-14.089 7.222s-4.425 12.411-4.425 22.787v51.167h-22.888v-99.08z"/>
    </g>
    <g fill="#ff4220">
        <path d="m385.58 146.59v75.416h-37.709v-75.416h-13.541v-31.459h13.541v-16.041c0-8.889 0.834-15.972 2.5-21.25 1.389-4.445 3.612-8.577 6.667-12.396 3.056-3.82 6.632-7.118 10.729-9.896 4.098-2.778 8.507-4.93 13.229-6.458 4.723-1.528 9.375-2.292 13.959-2.292 3.194 0 6.146 0.347 8.854 1.042 2.708 0.694 5.451 1.666 8.229 2.916v32.917c-2.5-1.25-4.826-2.187-6.979-2.812s-4.41-0.938-6.771-0.938c-1.528 0-3.09 0.243-4.687 0.729-1.598 0.486-3.091 1.493-4.48 3.021-1.388 1.528-2.326 3.715-2.812 6.563-0.486 2.847-0.729 6.701-0.729 11.562v13.333h26.458v31.459h-26.458z"/>
        <rect x="427.24" y="49.091" width="37.708" height="172.92"/>
        <path d="m531.62 207.42-51.666-92.292h43.75l28.541 54.792 27.709-54.792h43.333l-85.833 160.21h-42.292l36.458-67.917z"/>

        <rect x="347.83" y="278.16" width="116.77" height="30.123"/>
        <path d="m642.71 0v93.81h30.123v-93.81h-30.123z"/>
        <rect x="579.02" width="93.81" height="30.123" fill-opacity=".6"/>
    </g>
</svg>