<svg width="52" height="22" viewBox="0 0 52 22" fill="none" xmlns="http://www.w3.org/2000/svg">
    <g clip-path="url(#clip0_160_9)">
        <path d="M9.75722 2.83635C9.15413 3.57945 8.18918 4.16556 7.22424 4.08183C7.10362 3.07707 7.57604 2.00951 8.12887 1.35014C8.73196 0.586108 9.78737 0.0418649 10.6418 0C10.7423 1.04662 10.3503 2.07231 9.75722 2.83635ZM10.6317 4.28068C9.23454 4.19696 8.03841 5.10752 7.37501 5.10752C6.70156 5.10752 5.68635 4.32255 4.58069 4.34348C3.14332 4.36442 1.80647 5.21218 1.07271 6.56232C-0.435021 9.26261 0.680697 13.2607 2.13817 15.4586C2.85183 16.5471 3.7062 17.7402 4.83197 17.6984C5.89744 17.6565 6.3196 16.9762 7.60619 16.9762C8.90284 16.9762 9.27475 17.6984 10.4005 17.6774C11.5665 17.6565 12.3003 16.589 13.0139 15.5005C13.8281 14.2655 14.1598 13.0618 14.1799 12.999C14.1598 12.9781 11.9283 12.0885 11.9082 9.40913C11.8881 7.16936 13.6673 6.10181 13.7477 6.03901C12.7425 4.49001 11.1745 4.32255 10.6317 4.28068ZM18.7031 1.24548V17.5623H21.1355V11.9838H24.5028C27.5786 11.9838 29.7396 9.78592 29.7396 6.60419C29.7396 3.42245 27.6188 1.24548 24.5832 1.24548H18.7031ZM21.1355 3.38059H23.9399C26.0507 3.38059 27.2569 4.55281 27.2569 6.61465C27.2569 8.6765 26.0507 9.85918 23.9299 9.85918H21.1355V3.38059ZM34.1824 17.6879C35.7102 17.6879 37.1275 16.882 37.7708 15.6051H37.8211V17.5623H40.0726V9.44053C40.0726 7.08563 38.2633 5.56803 35.4791 5.56803C32.8958 5.56803 30.986 7.10657 30.9157 9.22074H33.1069C33.2878 8.21598 34.1824 7.55661 35.4087 7.55661C36.8963 7.55661 37.7306 8.27878 37.7306 9.60799V10.5081L34.695 10.6965C31.8706 10.8744 30.3427 12.078 30.3427 14.1713C30.3427 16.2854 31.9208 17.6879 34.1824 17.6879ZM34.8358 15.7517C33.5391 15.7517 32.7149 15.1028 32.7149 14.1085C32.7149 13.0828 33.509 12.4862 35.0267 12.392L37.7306 12.2141V13.1351C37.7306 14.6632 36.4842 15.7517 34.8358 15.7517ZM43.078 22C45.4502 22 46.5659 21.058 47.5409 18.2008L51.8128 5.72502H49.3401L46.4754 15.3644H46.4252L43.5605 5.72502H41.0174L45.1386 17.6042L44.9174 18.3264C44.5455 19.5509 43.9424 20.0219 42.8669 20.0219C42.6759 20.0219 42.304 20.001 42.1533 19.98V21.9372C42.294 21.9791 42.8971 22 43.078 22Z" fill="white"/>
    </g>
    <defs>
        <clipPath id="clip0_160_9">
            <rect width="51.4638" height="22" fill="white" transform="translate(0.347824)"/>
        </clipPath>
    </defs>
</svg>
