<svg width="61" height="25" viewBox="0 0 61 25" fill="none" xmlns="http://www.w3.org/2000/svg">
    <g clip-path="url(#clip0_160_22)">
        <path d="M26.8796 19.7597H24.6564V2.38593H30.5528C31.2567 2.37117 31.9564 2.49649 32.6118 2.75464C33.2671 3.01279 33.865 3.39867 34.371 3.89C34.8821 4.35151 35.2889 4.9175 35.564 5.54993C35.8391 6.18237 35.9761 6.86659 35.9659 7.55661C35.9806 8.25033 35.8456 8.93902 35.5703 9.57548C35.295 10.2119 34.8859 10.7811 34.371 11.244C33.3399 12.231 32.0672 12.7241 30.5528 12.7231H26.8796V19.7597ZM26.8796 10.5897H30.6081C31.0168 10.6019 31.4236 10.5283 31.8024 10.3736C32.1811 10.2189 32.5236 9.98656 32.8078 9.69142C33.0906 9.41548 33.3153 9.08541 33.4688 8.72076C33.6222 8.3561 33.7013 7.96426 33.7013 7.5684C33.7013 7.17253 33.6222 6.78069 33.4688 6.41603C33.3153 6.05138 33.0906 5.72132 32.8078 5.44537C32.5272 5.14401 32.1859 4.90598 31.8067 4.74705C31.4274 4.58812 31.0189 4.51193 30.6081 4.52352H26.8796V10.5897Z" fill="white"/>
        <path d="M41.0895 7.48462C42.7327 7.48462 44.0299 7.92544 44.9808 8.80709C45.9318 9.68874 46.4068 10.8975 46.4059 12.4335V19.7598H44.2794V18.1102H44.1827C43.2621 19.4687 42.0377 20.1479 40.5095 20.1479C39.205 20.1479 38.1137 19.7598 37.2354 18.9835C36.8139 18.6272 36.477 18.181 36.2491 17.6774C36.0212 17.1738 35.9081 16.6254 35.918 16.0724C35.918 14.8423 36.3811 13.8641 37.3072 13.1377C38.2333 12.4113 39.4697 12.0472 41.0163 12.0454C42.3364 12.0454 43.4237 12.2879 44.278 12.7731V12.263C44.2805 11.886 44.1994 11.5131 44.0406 11.1714C43.8817 10.8297 43.6491 10.5278 43.3597 10.2876C42.7718 9.75511 42.0055 9.46457 41.2138 9.47388C39.9719 9.47388 38.9891 9.99972 38.2655 11.0514L36.3074 9.81351C37.3845 8.26091 38.9786 7.48462 41.0895 7.48462ZM38.2131 16.1209C38.2116 16.4049 38.2777 16.6852 38.406 16.9384C38.5343 17.1916 38.7209 17.4104 38.9505 17.5765C39.4422 17.9647 40.0525 18.1704 40.678 18.1587C41.6161 18.1571 42.5154 17.7822 43.1788 17.1162C43.9153 16.4203 44.2835 15.6038 44.2835 14.6667C43.5903 14.1122 42.6237 13.835 41.3836 13.835C40.4805 13.835 39.7275 14.0536 39.1245 14.4907C38.5155 14.9343 38.2131 15.4735 38.2131 16.1209Z" fill="white"/>
        <path d="M58.6127 7.8728L51.189 24.9998H48.8939L51.6488 19.0071L46.7674 7.8728H49.1839L52.7121 16.4121H52.7605L56.192 7.8728H58.6127Z" fill="white"/>
        <path d="M19.8378 11.2082C19.8387 10.528 19.7814 9.84904 19.6666 9.17871H10.2903V13.0228H15.6606C15.5507 13.6367 15.3181 14.222 14.9769 14.7432C14.6356 15.2645 14.1927 15.711 13.6749 16.0559V18.5511H16.8799C18.7566 16.8141 19.8378 14.2454 19.8378 11.2082Z" fill="#4285F4"/>
        <path d="M10.2903 20.9613C12.9734 20.9613 15.2326 20.0769 16.88 18.552L13.6749 16.0568C12.7829 16.664 11.634 17.0105 10.2903 17.0105C7.69702 17.0105 5.49587 15.2556 4.70876 12.8906H1.40704V15.4621C2.23457 17.1152 3.50349 18.5048 5.07213 19.4759C6.64078 20.4469 8.44742 20.9612 10.2903 20.9613V20.9613Z" fill="#34A853"/>
        <path d="M4.70874 12.891C4.29263 11.6517 4.29263 10.3097 4.70874 9.0705V6.49902H1.40702C0.710879 7.88964 0.348328 9.42441 0.348328 10.9807C0.348328 12.5371 0.710879 14.0718 1.40702 15.4625L4.70874 12.891Z" fill="#FBBC04"/>
        <path d="M10.2903 4.95047C11.7082 4.92721 13.0783 5.46501 14.1044 6.44761L16.9421 3.59888C15.1427 1.90223 12.7589 0.970735 10.2903 0.999678C8.44742 0.999763 6.64078 1.51405 5.07213 2.48512C3.50349 3.4562 2.23457 4.84583 1.40704 6.4989L4.70876 9.07038C5.49588 6.70545 7.69702 4.95047 10.2903 4.95047Z" fill="#EA4335"/>
    </g>
    <defs>
        <clipPath id="clip0_160_22">
            <rect width="60.2029" height="25" fill="white" transform="translate(0.347839)"/>
        </clipPath>
    </defs>
</svg>
