<svg width="20" height="18" viewBox="0 0 20 18" fill="none" xmlns="http://www.w3.org/2000/svg">
    <path d="M0.73804 14.9979C-0.0338891 16.3313 0.92823 18 2.46889 18H17.5311C19.0718 18 20.0339 16.3313 19.262 14.9979L11.7309 1.98965C10.9605 0.659081 9.03948 0.659085 8.26915 1.98965L0.73804 14.9979ZM11 14C11 14.5523 10.5523 15 10 15C9.44771 15 9 14.5523 9 14C9 13.4477 9.44771 13 10 13C10.5523 13 11 13.4477 11 14ZM11 10C11 10.5523 10.5523 11 10 11C9.44771 11 9 10.5523 9 10V8C9 7.44771 9.44771 7 10 7C10.5523 7 11 7.44771 11 8V10Z" fill="#F9D477"/>
</svg>